<?xml version="1.0" encoding="utf-8"?>
<!-- Designed by Vexels.com - 2020 All Rights Reserved - https://vexels.com/terms-and-conditions/  -->
<svg version="1.1" id="Capa_1" xmlns="http://www.w3.org/2000/svg" xmlns:xlink="http://www.w3.org/1999/xlink" x="0px" y="0px"
	 viewBox="0 0 1200 1200" enable-background="new 0 0 1200 1200" xml:space="preserve">
<g>
	<path d="M1146.261,456.452c-9.464-21.429-26.432-39.79-42.598-56.381c-12.13-12.461-24.922-24.237-38.61-35.023
		c-8.732-6.891-17.889-13.476-27.542-19.069c-1.605-0.92-3.493-2.03-5.475-3.115c-1.487,5.9-3.611,11.635-6.372,17.134
		c-9.322,18.644-25.276,33.371-42.858,44.25c1.77,2.454,3.682,4.838,5.334,7.269c3.729,5.499,6.348,11.375,8.968,17.464
		c4.908,11.446,9.086,23.104,13.499,34.739c8.779,23.246,21.382,44.817,17.582,70.541c-0.897,6.018-7.859,8.213-12.909,7.34
		c-0.142-0.047-0.26-0.071-0.401-0.094c0.519,20.39,8.732,41.536,10.195,61.573c1.935,26.503,0.307,53.95-4.838,80.052
		c-5.05,25.488-17.205,48.616-26.503,72.665c-3.517,9.11-6.561,18.904-11.895,27.14c-5.688,8.779-13.074,14.089-21.452,19.989
		c-2.761,1.935-6.372,1.605-9.18-0.023c-14.066,24.143-33.04,44.769-55.814,61.266c-10.478,7.576-39.058,29.406-53.431,18.857
		c-22.491,2.478-45.005,4.956-67.26,9.086c-17.818,3.304-35.023,9.039-52.982,11.281c-16.921,2.1-34.031,2.69-50.882,5.405
		c-11.965,1.912-25.087,4.531-34.551,12.414c-5.097,16.898-16.284,32.474-30.397,43.708c-21.146,16.827-48.31,28.108-76.677,33.347
		c11.635,17.936,21.358,37.194,34.479,54.091c12.603,16.261,26.645,31.318,35.4,49.962c76.418,37.312,160.835,31.152,243.577,32.167
		c46.209,0.566,92.442,1.322,138.627-0.472c22.373-0.873,42.999-3.918,64.334-10.903c16.567-5.451,32.781-11.918,49.348-17.322
		c-0.519-72.76,16.591-144.221,27.612-215.824c10.077-65.349,19.682-130.816,23.553-196.872
		c2.053-35.046,1.912-70.093,1.888-105.186c0-29.429-1.723-59.472,0.165-88.831C1149.164,483.923,1152.609,470.896,1146.261,456.452
		z M711.266,968.719c-1.74,6.087-4.586,10.995-8.379,15.983c-3.075,4.042-10.077,9.81-11.196,14.875
		c-2.049,9.279,11.613,20.181,13.949,29.336c4.988,19.552-15.299,42.124-35.164,37.522c-21.365-4.95-30.085-31.124-26.108-50.515
		c2.06-10.043,8.26-23.056,16.936-32.974c6.103-14.778,17.476-26.604,34.122-30.067
		C704.773,950.934,714.104,958.792,711.266,968.719z M762.593,1010.773c-6.089,4.342-16.284-1.392-15.529-8.897
		c0.378-3.517,1.676-6.773,3.469-9.865c1.463-19.895,20.603-39.837,39.176-42.032c7.41-0.873,13.358,9.558,8.897,15.505
		c-6.112,8.118-12.838,15.765-19.14,23.742C774.016,996.141,769.744,1005.652,762.593,1010.773z M835.4,990.005
		c-8.591,29.736-28.415,53.384-39.601,81.892c-4.319,11.045-17.984,10.833-22.349,0c-13.57-33.607,13.31-69.738,39.53-88.312
		c3.186-2.242,6.537-2.337,9.464-1.156C826.927,976.977,837.571,982.547,835.4,990.005z M921.139,1024.957
		c-4.909,24.379-2.997,59.52-31.884,68.983c-6.797,2.242-15.175-3.847-14.656-11.163c0.661-9.369,3.233-17.629,6.75-25.465
		c-0.024-0.165-0.071-0.33-0.094-0.519c-0.708-6.679,3.635-13.216,6.561-18.927c3.776-7.41,7.741-14.727,11.871-21.972
		C906.602,1003.811,923.688,1012.378,921.139,1024.957z M1080.464,875.166c-6.349,28.533-3.328,59.803-14.255,87.202
		c-9.44,23.695-28.438,37.359-45.524,55.107c-20.202,21.051-32.97,47.838-49.678,71.485c-5.027,7.127-17.629,7.269-19.871-2.596
		c-10.172-44.84,16.756-93.126,37.949-130.863c16.095-28.603,33.371-56.546,50.033-84.819c3.8-12.579,6.561-25.559,10.573-37.996
		c5.003-15.458,11.163-33.701,24.497-44.038c8.331-6.466,18.927-2.407,20.084,8.307
		C1097.173,823.742,1086.152,849.489,1080.464,875.166z M1101.798,646.646c-10.549,40.687-26.361,79.981-44.888,117.67
		c-17.959,36.533-37.996,73.75-66.01,103.628c-5.782,6.136-13.712-1.699-10.785-8.331c17.464-39.459,41.631-75.662,60.275-114.626
		c33.56-70.069,56.334-146.958,52.534-225.287c-1.015-20.697-3.351-41.466-7.151-61.832c-2.242-12.036-5.003-24.096-9.275-35.613
		c-2.596-7.009-6.207-17.204-12.815-21.476c-7.104-4.578-2.644-17.039,5.971-14.136c24.922,8.354,31.624,43.33,36.415,65.632
		C1119.923,516.963,1118.437,582.524,1101.798,646.646z"/>
	<path d="M1066.398,113.023c-0.826-8.236-1.369-18.691-6.183-25.795c-7.694-11.281-24.71-14.443-37.288-15.812
		c-39.247-4.295-76.866,7.576-108.962,30.019c-19.494,13.617-38.799,27.494-58.363,40.97c-6.679,4.602-13.405,9.204-19.706,14.302
		c-3.866,3.119-9.538,6.781-13.05,11.167c-8.801-3.412-18.047-6.179-26.253-9.396c-15.668-6.142-31.336-12.283-47.004-18.425
		c-30.123-11.808-60.679-26.531-92.905-31.365c-31.309-4.696-59.501,5.307-89.922,10.577c-26.264,4.55-51.815-3.858-77.615-2.095
		c-3.191-0.285-6.4-0.43-9.638-0.348c-65.609,1.652-113.658,57.726-176.34,68.417c-9.251,1.581-12.343-10.384-3.824-13.877
		c0.425-0.165,0.85-0.354,1.275-0.543c-1.439-0.897-2.714-2.289-3.469-4.295c-3.021-7.764-14.396-14.467-20.768-19.281
		c-6.749-5.074-13.759-9.723-20.697-14.561c-21.594-15.033-42.575-31.719-65.207-45.194c-31.317-18.644-70.352-27.683-106.484-19.73
		c-14.018,3.092-26.975,8.708-30.302,23.789c-5.24,23.765-4.697,49.348,0.33,73.09c4.578,21.665,6.915,38.539,18.408,57.277
		c10.077,16.402,20.768,35.188,24.355,54.375c4.107,21.948,3.965,44.628,13.642,65.514c7.363,15.836,34.149,39.955,51.849,52.133
		c4.484-12.414,22.68-6.679,20.344,6.396c-2.029,11.328-10.242,19.069-15.411,28.91c-5.853,11.139-10.006,23.435-14.375,35.217
		c-6.298,16.985-16.759,32.456-18.961,50.632c24.979,9.641,8.217,54.61,5.323,74.255c-3.564,24.19-2.407,49.891,0.637,74.057
		c0.142,1.133,0.33,2.266,0.496,3.398c13.853-2.053,27.848-2.879,41.229-2.95c27.683-0.118,60.228,3.28,82.53,21.335
		c5.971-26.739,18.148-56.216,43.802-67.803c7.41-3.351,13.806,4.815,8.567,11.116c-19.328,23.27-29.83,50.953-33.04,80.925
		c-2.69,25.299-2.525,52.298,5.735,76.63c9.062,26.715,33.135,50.835,60.275,59.166c25.323,7.812,54.658-0.566,79.509-7.34
		c17.016-4.649,40.71-11.611,47.861-29.311c-3.564-1.77-6.868-4.059-9.676-6.844c-7.67-7.528-9.582-16.827-14.231-26.102
		c-9.086-18.196-32.969-22.821-47.366-35.943c-23.859-21.712-37.854-68.464-7.457-90.389c0.283-3.092,2.218-5.994,6.207-7.08
		c27.376-7.528,52.77,12.13,80.193,12.036c26.243-0.071,48.782-19.14,74.86-16.331c51.189,5.475,37.312,75.072,8.685,98.578
		c-7.623,6.254-16.52,10.455-24.426,16.261c-9.628,7.033-8.968,12.65-9.936,23.671c-1.44,16.26-12.98,30.35-28.249,34.928
		c2.502,3.021,4.744,6.301,6.891,9.605c5.758,8.756,12.296,15.553,21.476,20.768c12.791,7.269,27.919,12.13,42.929,15.104
		c0.284,0,0.566,0.024,0.826,0.024c1.817-0.047,3.398,0.354,4.791,0.991c3.917,0.661,7.812,1.251,11.611,1.652
		c34.409,3.729,71.296-3.446,97.752-26.904c20.202-17.912,32.262-42.811,36.321-69.337c4.555-29.736-1.534-58.835-12.249-86.565
		c-6.561-16.992-15.081-34.008-27.258-47.719c-11.186-12.603-29.194-21.193-37.029-36.273c-4.791-9.204,4.579-16.898,13.216-13.216
		c10.88,4.626,20.579,14.396,29.382,22.184c8.661,7.67,16.096,16.308,22.633,25.842c9.794,14.278,17.228,30.326,23.199,46.705
		c54.21-20.957,113.187-28.509,170.016-12.225c8.874,2.525,6.16,14.16-2.03,15.057c-28.674,3.115-57.868-4.744-86.778-2.195
		c-25.559,2.242-50.811,9.369-75.45,16.756c3.398,11.682,5.593,23.742,6.537,35.872c29.406-2.171,58.151,1.77,86.683,10.172
		c16.142,4.744,32.19,10.219,47.814,16.449c14.49,5.806,30.397,10.998,43.873,18.904c8.236,4.838,2.289,15.789-6.089,14.42
		c-15.812-2.525-31.978-9.747-46.941-15.364c-13.9-5.216-27.754-10.573-41.914-15.057c-26.928-8.496-54.682-14.255-82.907-14.467
		c-0.118,12.791-1.652,25.512-4.649,37.784c18.29,3.988,35.919,11.092,52.203,20.32c15.765,8.921,34.976,20.839,42.056,38.279
		c2.69,6.632-6.065,11.847-11.422,8.803c-15.01-8.52-27.211-22.066-42.244-31.011c-14.326-8.52-29.524-15.458-45.124-21.264
		c-9.346,26.031-25.937,49.183-50.433,65.443c-17.299,11.493-36.793,18.243-56.994,21.146c1.77,5.192,2.761,10.478,3.091,15.765
		c21.901-10.526,50.788-10.62,73.09-13.122c20.107-2.266,39.153-8.921,58.977-12.768c24.851-4.815,50.033-7.788,75.143-10.856
		c2.336-0.283,4.956,0.85,6.938,2.525c0.567-0.142,1.582-0.425,3.281-1.109c4.295-1.746,8.401-4.366,12.343-6.82
		c7.363-4.578,14.467-9.653,21.216-15.081c21.287-17.11,63.768-69.196,68.44-62.824c0.26,0.354,0.472,0.708,0.732,1.038
		c3.398-5.57,5.64-12.461,7.576-17.582c3.729-9.818,7.457-19.564,11.54-29.24c9.464-22.373,18.22-44.298,21.287-68.559
		c3.139-24.733,4.295-51.141,0.826-75.898c-2.974-21.051-8.945-41.772-5.334-63.13c0.991-5.829,6.325-7.977,11.328-7.293
		c-3.304-18.243-13.499-35.306-19.871-52.581c-4.531-12.319-8.614-25.394-15.057-36.863c-5.169-9.18-12.555-16.591-14.609-27.305
		c-1.558-8.118,5.003-13.381,11.234-13.287c58.552-15.033,52.581-96.808,57.985-111.888c6.797-18.974,18.432-40.38,28.32-57.773
		c10.974-19.305,9.605-43.613,11.847-65.679C1067.696,138.865,1067.72,125.861,1066.398,113.023z M854.091,325.637
		c1.393,8.024,1.699,17.983-5.286,23.6c-7.316,5.876-16.473,2.808-23.128-2.407c-14.537-11.399-21.311-28.061-20.579-46.209
		c0.236-5.782,6.844-8.614,11.092-6.561c1.464-1.109,3.233-1.912,5.357-2.313C838.161,288.608,851.708,312.114,854.091,325.637z
		 M762.241,170.091c9.369,3.678,18.739,7.357,28.109,11.035c3.701,1.453,7.44,3.057,11.212,4.677c0.861,1.52,1.696,3.075,2.52,4.652
		c5.357,10.195,10.667,20.39,15.977,30.586c0.566,0.448,1.086,0.944,1.581,1.605c5.617,7.599,10.691,15.199,15.01,23.624
		c2.809,5.499,0.519,12.555-5.782,14.231c-9.7,2.596-18.361-0.212-25.913-6.655c-8.448-7.198-12.248-18.337-22.326-23.647
		c-14.797-7.788-33.158-11.776-35.707-31.388C745.317,186.368,752.123,175.212,762.241,170.091z M743.454,233.124
		c4.815,7.835,7.198,18.904,0.85,25.559c-4.956,5.192-13.547,5.334-20.037,2.242c-6.49-3.092-11.352-8.732-15.93-14.254
		c-4.602-5.546-9.298-11.257-15.623-14.656c-6.231-3.304-13.782-4.248-19.069-8.897c-6.018-5.31-8.189-19.069-0.944-24.568
		c8.189-6.254,19.919,3.634,27.234,7.363c3.611,1.864,7.458,3.186,11.305,4.484c5.027,1.652,10.077,3.233,14.726,5.735
		C733.188,220.049,739.158,226.115,743.454,233.124z M632.179,283.298c2.761,9.393,1.393,23.411-8.189,28.745
		c-4.744,2.62-10.785,2.1-14.845-1.392c-3.611-3.092-3.941-7.505-8.425-9.747c-9.771-4.909-21.24-3.469-29.736-11.611
		c-7.269-6.962-9.818-17.7-4.484-26.503c1.841-3.068,4.885-4.224,7.835-4.012c0.85-1.109,1.817-2.148,2.903-3.068
		C595.316,240.487,626.845,265.126,632.179,283.298z M572.4,202.633c12.178-3.54,24.591-8.52,37.241-9.7
		c19.517-1.794,2.124,18.998-2.572,23.293c-7.293,6.655-21.712,17.913-32.45,14.207C558.9,224.958,554.015,207.966,572.4,202.633z
		 M418.698,161.236c5.427-1.178,11.772-0.941,15.593,3.093c1.015,1.062,1.77,2.313,2.336,3.682c0.496,1.204,0.826,2.502,1.039,3.8
		c1.982,13.027-8.331,24.662-19.152,32.263c-11.68,8.196-74.219,18.462-78.174-1.766c-0.099-0.507-0.154-1.013-0.165-1.516
		C339.71,180.855,406.226,163.945,418.698,161.236z M453.998,199.234c12.626-3.28,27.518-2.454,27.235,14.325
		c-0.212,12.379-6.879,26.454-19.128,30.818c-5.146,1.827-21.773,1.575-34.967-1.791c-12.723-3.246-22.254-9.387-15.217-19.353
		c0.283-0.4,0.589-0.801,0.99-1.178C424.615,210.657,438.186,203.364,453.998,199.234z M323.559,286.838
		c2.832-10.95,7.151-22.113,13.216-31.766c0.425-0.684,0.85-1.345,1.298-2.006c6.585-9.794,16.543-9.369,28.084-8.826
		c1.983,0.094,3.988,0.283,5.806,1.015c2.36,0.968,4.248,2.832,5.924,4.744c5.806,6.561,10.195,14.868,10.172,23.647
		c-0.047,8.756-5.334,17.818-13.735,20.367c-2.029,0.637-4.225,0.873-6.136,1.793c-2.029,0.968-3.61,2.62-5.191,4.201
		c-5.287,5.334-11.21,10.455-18.456,12.461c-7.222,2.03-16.048,0.118-20.06-6.23C320.893,300.62,321.908,293.304,323.559,286.838z
		 M279.781,229.088c4.484-7.765,18.715-7.104,20.391,2.667c3.139,18.172,5.806,38.421-4.012,55.13
		c-5.122,8.708-13.264,13.759-20.273,20.674c-7.339,7.269-12.154,16.095-15.057,25.937c-1.983,6.75-9.039,9.558-14.915,7.245
		c-2.502,2.384-6.419,2.974-9.77-0.165c-15.246-14.373-16.025-37.477,1.133-50.363C257.149,275.274,267.533,250.211,279.781,229.088
		z M211.199,477.291c2.785-15.387,28.627-34.716,42.315-25.347c8.001,5.499,12.721,22.798,23.176,30.09
		c9.511,6.632,20.579,11.068,31.247,15.458c8.047,3.328,13.05,16.638,2.785,21.217c-10.62,4.767-21.169,9.818-31.931,14.231
		c-6.466,2.667-13.122,4.272-19.754,1.274c-1.581-0.732-2.95-1.675-4.13-2.785c-0.991-0.448-1.958-0.944-2.831-1.51
		c-6.302-4.083-10.29-11.257-10.998-18.597C229.536,505.399,208.556,492.041,211.199,477.291z M201.853,445.337
		c-6.018-10.88-7.906-30.987-3.941-43.212c2.124-6.561,7.198-11.375,11.399-16.19c5.452-6.278,10.904-12.555,16.378-18.809
		c4.225-4.862,11.776-2.596,13.358,4.012c3.917,16.449-3.965,40.026-11.022,54.139C225.123,431.035,208.58,457.444,201.853,445.337z
		 M138.959,352.163c-18.078-11.068-18.266-31.577-16.685-50.953c0.778-9.487-2.313-19.329-5.192-28.226
		c-8.756-26.881-21.712-52.369-33.488-77.999c-7.883-17.204-16.52-34.055-18.738-52.369c-0.708-6.018-0.755-12.201,0.189-18.597
		c0.92-6.514,3.068-12.956,7.103-18.125c0.85-1.086,1.77-2.124,2.337-3.351c3.823-8.307,5.522-12.131,15.694-13.665
		c7.363-1.109,14.939,0.567,21.877,3.045c14.443,5.168,27.305,14.325,39.412,23.577c20.485,15.671,37.878,34.338,54.422,53.997
		c13.853,16.449,34.102,34.22,34.409,57.514c0.283,20.957-16.095,38.988-27.707,54.847
		C196.52,303.806,180.259,377.415,138.959,352.163z M158.335,541.366c2.006-5.192,6.254-10.006,5.758-15.482
		c-0.307-3.351-2.383-6.325-3.941-9.393c-5.593-11.021-5.9-36.816,10.833-41.819c17.157-5.098,17.44,13.924,20.579,24.898
		c4.461,15.671,8.945,31.341,13.405,47.011c0.213,0.732,0.377,1.416,0.543,2.124C213.111,583.822,145.827,573.91,158.335,541.366z
		 M228.191,636.12c-2.738,2.242-6.396,3.611-11.682,4.059c-7.245,0.59-14.939-0.425-21.854-2.62
		c-15.553-4.98-27.848-15.364-29.973-32.096c-0.613-4.909,3.989-9.346,8.166-10.714c23.694-7.788,50.457,3.21,61.407,26.409
		C236.829,626.633,234.516,634.893,228.191,636.12z M313.223,558.617c-4.414,5.9-11.022,9.652-16.898,14.089
		c-10.55,7.953-14.986,30.137-31.932,24.733c-6.56-2.077-11.517-7.363-15.953-12.626c-6.065-7.222-11.989-17.134-7.67-25.559
		c4.696-9.157,17.558-9.322,27.683-7.528c2.785,0.496,5.687,1.038,8.378,0.212c3.281-1.015,5.594-3.847,7.859-6.419
		c3.8-4.319,8.142-8.402,13.546-10.313c5.428-1.912,12.107-1.18,15.977,3.068c1.133,1.251,1.935,2.714,2.431,4.272
		C318.32,547.714,316.645,554.086,313.223,558.617z M296.042,396.461c-8.118,3.587-15.246,8.614-23.27,14.325
		c-5.475,3.918-12.791-2.572-11.068-8.496c5.829-19.824,32.049-28.509,50.174-31.459c20.344-3.304,42.457-2.974,61.007,6.868
		c14.042,7.434,25.629,20.579,33.323,35.117c0.991-3.988,1.935-7.977,2.761-12.012c4.72-23.081,6.608-46.658,5.428-70.187
		c-1.156-22.656-5.853-44.746-6.82-67.355c-0.283-6.396,8.26-7.906,11.399-3.092c26.149,40.12,22.161,97.893,13.429,143.088
		c-3.753,19.447-9.44,38.633-16.827,57.065c-1.18,7.387-3.823,14.278-8.496,19.352c-9.039,19.187-20.131,39.766-35.778,53.856
		c-4.932,4.437-15.175,0.189-12.272-7.151c6.278-15.812,15.034-30.539,22.656-45.808c-0.024-0.071-0.047-0.142-0.071-0.236
		c-4.484,1.865-9.346,3.045-14.349,3.351c-17.606,1.133-34.716-7.528-47.908-18.526
		C299.511,448.617,287.192,419.376,296.042,396.461z M303.24,742.014c-0.826-0.33-1.652-0.732-2.431-1.203
		c-6.49-3.988-10.125-11.611-9.11-19.14c2.242-16.709,24.237-22.066,35.589-10.596c10.006,10.101,8.355,30.326-6.75,34.669
		C314.615,747.442,307.984,745.908,303.24,742.014z M339.914,809.015c-5.593,1.369-11.233-0.566-15.104-4.248
		c-3.516-1.038-6.514-3.611-7.954-7.009c-2.737-6.514-1.015-13.664,3.989-18.573c8.307-8.166,23.246-6.844,29.382,3.257
		C356.033,792.023,351.148,806.278,339.914,809.015z M366.795,763.585c-5.569,2.053-10.951,0.33-14.726-3.28
		c-2.077-0.944-3.8-2.454-5.145-4.39c-0.165-0.236-0.402-0.543-0.567-0.755c0.142,0.142,0.354,0.378,0.685,0.732
		c-1.18-1.369-2.006-2.856-2.572-4.578c-1.652-5.121,0.519-11.234,4.177-14.915c6.773-6.773,18.738-6.419,25.063,0.802
		C381.451,746.003,377.627,759.596,366.795,763.585z M383.126,782.913c4.956-5.829,14.538-4.366,20.91-2.053
		c3.186,1.156,6.844,3.658,7.363,7.363c0.496,3.422,0.543,6.254-0.826,9.487c-1.062,2.572-2.691,4.649-4.862,6.325
		c-4.602,3.564-10.974,4.508-16.143,1.487c-2.832-1.676-5.003-4.39-6.112-7.481c-0.732-0.732-1.393-1.534-1.983-2.337
		C378.572,791.811,380.342,786.17,383.126,782.913z M412.626,541.625c-15.057,26.55-33.37,50.929-52.274,74.813
		c-4.767,6.042-14.797-1.912-10.596-8.166c15.859-23.577,32.261-46.941,46.044-71.792c7.104-12.791,13.57-26.007,18.715-39.719
		c4.909-13.122,8.189-26.857,13.263-39.884c2.572-6.584,12.32-5.829,12.602,1.699C441.466,487.392,426.48,517.223,412.626,541.625z
		 M474.034,407.317c-10.219,18.833-26.668,11.517-26.361-9.11c0.26-17.511,14.113-70.399,28.934-47.814
		C489.964,370.76,485.032,387.091,474.034,407.317z M478.669,308.874c-21.801-9.731-4.626-30.833,2.598-44.393
		c2.654-4.981,5.366-10.042,9.361-14.03C549.744,191.447,532.015,332.645,478.669,308.874z M524.421,184.224
		c-15.671-1.204-31.082-5.688-44.935-13.122c-5.286-2.832-10.715-6.514-12.603-12.201c-8.897-26.432,34.504-25.842,47.342-18.078
		c8.166,4.956,15.128,11.895,20.013,20.084c1.723,2.903,2.974,6.49,3.375,9.983c0.637,5.381-0.755,10.549-5.57,12.603
		C529.683,184.508,526.993,184.413,524.421,184.224z M542.695,417.872c-4.58-1.566-7.668-6.182-6.285-11.072
		c3.936-13.916-1.509-27.517-3.255-41.255c-1.792-14.102,2.17-26.333,13.35-35.422c3.693-3.002,9.829-0.295,9.818,3.812
		c1.376,0.059,2.768,0.45,4.077,1.242c8.709,5.267,19.091,8.793,25.864,16.734c7.281,8.537,8.731,20.763,5.84,31.366
		C586.658,403.26,565.049,425.512,542.695,417.872z M590.529,442.781c-1.18-6.594,2.211-13.209,6.248-18.595
		c4.115-5.49,9.094-10.526,11.568-16.925c1.842-4.766,2.16-9.971,3.412-14.925s3.795-10.023,8.412-12.215
		c13.182-6.256,12.593,9.679,14.024,15.998c0.177,0.783,0.288,1.601,0.244,2.489c-0.258,5.105-1.201,9.758-2.705,14.116
		c-0.215,1.347-0.421,2.695-0.676,4.036c-0.206,1.03-0.537,1.913-0.924,2.725c-4.021,8.435,0.463,20.657-7.165,27.506
		c-7.264,6.522-30.057,7.359-32.365-3.826C590.576,443.036,590.552,442.909,590.529,442.781z M613.794,761.012
		c0.094,1.51-0.023,3.044-0.401,4.46c-1.156,4.248-3.8,7.174-7.222,9.747c-2.926,2.218-6.986,0.92-9.605-1.015
		c-2.785-0.142-5.617-1.086-8.331-2.431c-2.927-1.487-4.673-4.673-5.074-7.788c-0.307-2.266,0.071-4.106,0.921-5.853
		c-0.071-0.614-0.142-1.227-0.165-1.841c-0.283-5.452,4.744-9.771,9.865-9.888c4.012-0.094,8.166,0.732,11.706,2.596
		c0.307,0.094,0.614,0.165,0.92,0.26C611.883,750.841,614.573,756.056,613.794,761.012z M632.391,718.792
		c-6.443,6.372-16.615,4.744-21.665-1.463c-0.92-0.212-1.817-0.566-2.667-1.109c-6.49-4.177-7.222-14.042-3.021-20.131
		c3.894-5.641,10.738-8.189,17.394-6.183C633.902,693.327,642.02,709.257,632.391,718.792z M633.595,143.703
		c-0.976-4.447-0.697-9.009,0.493-13.403c7.554-0.121,15.157,0.417,22.85,1.979c20.526,4.169,40.377,11.708,59.957,19.646
		c0.178,4.985-1.419,9.5-8.181,13.184c-12.249,6.702-31.223,7.458-44.699,5.64c-10.573-1.416-21.783-6.207-25.606-16.85
		C636.167,151.137,634.468,147.715,633.595,143.703z M664.275,695.286c0.401-2.454,1.321-4.862,2.478-7.056
		c2.738-5.121,7.717-9.369,13.358-10.88c12.461-3.351,25.158,7.528,23.435,20.343c-0.637,4.744-2.926,8.26-6.065,10.62
		c-7.458,8.52-22.279,9.133-29.902-0.732C664.7,703.853,663.52,700.006,664.275,695.286z M664.936,736.02
		c3.115,1.841,5.687,4.72,7.646,7.977c0.826,0.85,1.581,1.746,2.195,2.808c2.384,4.036,3.021,8.826,1.959,13.216
		c-0.661,7.481-5.145,14.302-13.995,14.16c-1.44,0-2.832-0.26-4.154-0.661c-1.298,0.094-2.596,0.047-3.894-0.307
		c-1.392-0.401-2.69-1.251-3.965-1.912c-2.006-1.015-3.234-3.068-3.635-5.216c-4.225-4.295-6.868-10.03-5.003-16.166
		c0.023-0.071,0.071-0.142,0.094-0.212c0.047-1.935,0.614-3.8,1.345-5.711c0-0.024,0-0.024,0-0.047c0,0,0-0.024,0.024-0.047
		c0.024-0.047,0.047-0.094,0.071-0.142c0.024-0.047,0.047-0.118,0.071-0.165c0-0.024,0.023-0.024,0.023-0.024
		c0.449-0.968,1.558-3.233,2.077-3.941c0.968-1.251,1.487-1.794,2.738-2.761C653.324,733.164,659.768,732.975,664.936,736.02z
		 M650.492,300.125c-7.198-12.768-10.785-38.185-3.632-51.57c10.874-20.383,34.598-3.983,46.655,5.908
		c11.799,9.679,32.006,22.536,41.486,32.75c4.065,4.38,3.109,11.725-0.499,16.489c-9.146,12.076-27.373,15.925-41.364,12.802
		c-0.685,0.448-1.416,0.826-2.195,1.109C675.037,323.041,658.446,314.238,650.492,300.125z M709.257,483.191
		c-4.956-0.543-10.006-1.959-14.868-4.036c0.495,1.298,0.944,2.62,1.298,3.988c1.959,7.765-4.956,14.302-12.579,12.555
		c-24.308-5.546-25.583-38.397-21.665-57.962c4.225-21.051,16.851-42.881,35.046-54.799c17.936-11.753,41.725-12.013,62.187-8.897
		c18.573,2.832,45.619,11.281,51.661,31.648c1.77,5.947-5.617,12.414-11.068,8.496c-7.953-5.688-15.081-10.596-22.987-14.136
		c9.204,22.184,0.071,50.434-19.683,67.024C743.501,478.046,726.532,485.079,709.257,483.191z M859.826,530.722
		c-2.171,4.531-6.325,7.458-10.927,9.062c-5.452,1.935-15.458,0.472-17.181,7.788c-1.322,5.57,2.525,13.405,2.407,19.281
		c-0.094,5.735-1.77,10.88-5.263,15.411c-19.281,25.063-50.906,1.699-69.904-10.384c-4.578-2.926-5.9-7.481-4.838-11.611
		c0.141-1.605,0.897-3.21,2.242-4.437c1.321-1.628,3.068-2.974,5.192-3.847c1.912-0.755,3.8-1.322,5.735-1.723
		c11.588-6.372,19.706-14.774,26.716-27.612c4.956-9.039,8-23.577,18.337-28.249c11.305-5.098,24.072,6.16,33.37,11.493
		C855.224,511.346,865.726,518.285,859.826,530.722z M858.669,484.324c-6.561-17.511-13.122-34.999-19.682-52.51
		c-0.944-2.525-1.912-5.145-1.676-7.812c0.873-10.596,10.431-3.092,12.602-4.295c0.094-0.047,0.165-0.094,0.213-0.165
		c5.404-6.207,13.782-9.983,21.948-9.015c8.189,0.944,15.741,6.986,17.747,14.986c2.549,10.243-3.776,21.523,0.094,31.365
		c2.714,6.891,9.889,11.375,12.154,18.432c3.115,9.723-4.862,20.06-14.373,23.812c-7.34,2.879-16.52,2.714-22.255-2.714
		C862.044,493.221,860.298,488.69,858.669,484.324z M879.225,344.564c2.242-4.106,7.033-4.531,10.479-2.407
		c0.779,0.094,1.581,0.283,2.384,0.614c10.573,4.366,19.258,11.446,23.978,22.113c4.319,9.723,5.829,24.521-6.608,28.887
		C886.565,401.794,870.281,360.942,879.225,344.564z M906.436,603.363c-7.316,6.655-16.591,13.688-27.069,10.054
		c-8.803-3.044-12.626-11.894-11.847-20.674c1.416-16.001,14.113-31.01,27.187-41.229c10.243-10.266,25.937-17.299,35.329-1.628
		C941.317,568.695,919.369,591.658,906.436,603.363z M985.898,606.951c-2.03,9.44-11.092,14.325-13.901,22.939
		c-3.162,9.7,1.298,20.815-1.109,30.916c-5.121,21.641-29.099,11.894-33.276-4.98c-4.602-18.573,10.054-32.568,13.948-48.782
		c-3.564-3.776-4.437-10.006-0.071-14.49c6.49-6.679,14.113-11.965,23.553-7.883C983.632,588.401,987.857,597.935,985.898,606.951z
		 M967.891,468.488c1.558,7.174-0.566,14.42,0.495,21.523c1.062,7.151,7.411,11.186,11.328,16.78
		c7.765,11.139,6.75,23.742-0.896,34.716c-6.774,9.723-19.234,20.036-31.129,11.942c-5.711-3.894-7.576-11.139-9.676-17.299
		c-2.832-8.307-5.334-16.662-7.269-25.229c-3.965-17.275-6.466-34.574-5.57-52.322c0.236-4.791,4.696-7.175,8.425-6.348
		c2.195-2.218,5.145-3.823,9.134-4.437C955.855,445.761,965.295,456.712,967.891,468.488z M1043.317,200.131
		c-7.576,18.149-15.647,36.132-23.458,54.186c-5.239,12.131-11.8,22.444-14.018,35.707c-2.053,12.319-2.1,25.063-5.995,37.029
		c-5.593,17.157-21.641,40.545-42.763,35.235c-15.741-3.965-24.804-21.429-31.317-34.787c-6.986-14.302-12.225-28.58-21.736-41.489
		c-10.361-14.113-23.53-29.17-26.196-47.106c-3.092-20.627,11.092-38.067,23.813-52.605c17.606-20.154,34.834-40.521,54.799-58.434
		c11.116-9.936,22.987-19.73,36.108-26.904c11.045-6.042,28.037-13.853,39.625-5.522c3.281,2.36,5.546,5.688,6.514,8.992
		C1066.941,127.207,1055.377,171.221,1043.317,200.131z"/>
	<path d="M1032.721,118.687c13.853,23.034,1.44,53.336-8.496,75.426c-4.744,10.526-9.676,20.981-14.821,31.341
		c-2.502,5.05-5.027,10.077-7.764,15.01l-7.34,17.087c-7.717,13.145-10.29,27.659-12.909,43.212
		c-1.298,7.576-8.826,43.59-20.792,35.707c-4.862-3.186-8.307-11.847-10.785-16.78c-3.564-7.151-6.561-14.538-9.629-21.901
		c-5.947-14.184-14.278-25.535-23.01-38.161c-2.738-3.965-6.065-8.402-8.661-13.074c10.006,0.378,20.036,0.732,29.972,1.794
		c12.154,1.298,23.624,5.64,35.66,6.986c6.608,0.755,9.393-8.402,5.216-12.579c-9.487-9.511-24.049-13.004-39.153-14.042
		c2.879-1.274,5.782-2.478,8.732-3.611c15.411-5.806,31.53-7.41,47.342-11.54c5.098-1.345,6.938-9.7,1.581-12.083
		c-29.571-13.098-65.467,6.868-91.875,24.639c2.195-5.168,6.16-9.888,9.582-13.9c8.26-9.676,16.803-19.234,25.276-28.769
		c18.88-21.287,39.766-43.778,64.853-57.75c7.458-4.154,16.426-5.499,24.544-7.906c0.519-0.142,1.086-0.307,1.558-0.094
		C1032.225,117.884,1032.485,118.309,1032.721,118.687z"/>
	<path d="M750.888,394.124c6.443,8.236,11.092,17.039,9.228,28.297c-1.888,11.328-9.133,21.665-18.031,28.698
		c-8.307,6.561-19.211,11.045-29.925,9.936c-11.399-1.204-17.488-8.472-24.096-16.048c0.165-0.92,0.378-1.817,0.59-2.738
		c1.44-6.16,3.682-12.414,6.655-18.29c0.425,0.118,0.826,0.26,1.251,0.354c0.071,0.991,0.189,1.982,0.354,2.974
		c2.667,15.836,20.768,23.765,33.158,16.284c6.561-2.856,11.328-10.148,11.989-18.054c0.283-3.564-0.283-7.363-1.723-10.738
		c-0.024-0.165-0.047-0.307-0.094-0.472c-2.336-8.472-10.266-16.119-19.47-16.072c-0.024-0.047-0.047-0.118-0.071-0.165
		C729.954,394.266,741.023,393.511,750.888,394.124z"/>
	<path d="M614.88,883.71c14.962,69.904-79.391,96.194-133.199,93.905c-28.651-1.227-58.481-11.824-79.438-31.813
		c-10.219-9.77-18.172-21.618-23.175-34.881c-4.791-12.768-5.121-26.904-9.723-39.601c5.947,0.094,11.942-0.236,17.913-0.92
		c0.307,0.472,0.614,0.92,0.944,1.345c5.664,7.646,25.252,5.522,32.946,3.988c12.508-2.478,24.261-7.859,36.675-10.88
		c42.315-10.337,77.503,21.995,117.765,15.458C588.471,882.742,601.711,883.946,614.88,883.71z"/>
	<path d="M566.122,665.078c10.526,11.068,2.95,33.323-5.074,44.769c-23.789-7.245-46.87,14.727-45.147,37.996
		c-1.463,2.336-2.69,4.814-3.587,7.458c-2.525,7.505-0.448,15.647-2.832,22.987c-2.431,7.528-10.101,12.366-17.936,10.856
		c-10.337-2.006-13.051-11.989-16.615-20.438c-1.51-3.54-3.304-6.75-5.334-9.723c0.047-0.378,0.094-0.732,0.071-1.133
		c-0.472-13.735-5.286-27.943-15.954-37.17c-9.959-8.638-26.881-13.31-38.94-6.16c-0.047,0.024-0.094,0.071-0.142,0.094
		c-1.912-2.478-3.634-5.192-5.168-8.26c-7.198-14.396-8.331-29.052,2.997-41.324c1.251-1.345,2.006-2.879,2.431-4.46
		c16.025,3.021,30.373,10.431,46.492,13.924c17.724,3.847,36.651,3.611,54.092-1.487
		C528.315,669.231,553.992,652.334,566.122,665.078z"/>
	<path d="M388.46,444.629c-0.165,0.142-0.354,0.283-0.519,0.472c-7.434,8.142-11.942,16.426-24.143,16.237
		c-11.139-0.142-22.184-5.947-30.633-12.839c-9.015-7.363-16.662-17.275-19.612-28.674c-2.974-11.611,1.18-20.532,7.694-29.099
		c9.322-0.566,19.187,0.236,27.943,3.328c-0.661,0.071-1.345,0.118-2.006,0.26c-7.812,1.581-13.641,8.071-16.143,15.34
		c-0.307,0.944-0.566,1.912-0.779,2.903c-0.802,2.336-1.274,4.814-1.345,7.34c-0.307,8.897,4.885,18.361,12.909,21.547
		c1.581,0.968,3.304,1.723,5.145,2.242c15.128,4.248,28.792-8.472,29.76-23.105c0.708-0.189,1.369-0.425,2.03-0.684
		c2.478,4.012,4.555,8.142,6.207,12.248C386.548,436.062,387.823,440.31,388.46,444.629z"/>
	<path d="M352.682,869.786c-1.015,2.478-1.746,5.05-2.242,7.717c-33.89-9.936-65.136-25.866-94.117-46.304
		c-9.275-6.561-19.801-13.948-29.524-22.208c8.425-5.239,17.228-9.936,26.338-13.924c3.823-1.676,8.425-2.95,12.862-4.508
		c10.384,32.261,35.329,59.449,66.364,73.16C339.018,866.67,345.814,868.582,352.682,869.786z"/>
	<path d="M260.83,703.121c-0.802,5.688-1.44,11.47-1.888,17.275c-25.984-5.121-52.109,1.652-76.795,12.366
		c-5.853,2.549-11.824,5.286-17.771,8.236c-0.826-2.289-1.652-4.508-2.525-6.561c-4.862-11.54-12.13-21.594-14.679-33.89
		c-0.92-4.366-1.888-8.732-2.856-13.074c10.62-1.322,21.287-2.336,32.096-2.549c28.863-0.543,55.578,4.39,81.444,17.323
		C258.848,702.744,259.839,703.003,260.83,703.121z"/>
	<path d="M258.305,736.539c-0.024,11.894,0.873,23.765,3.021,35.329c-5.168,0.944-10.266,2.808-14.491,4.319
		c-12.484,4.484-24.308,10.714-35.447,17.865c-0.917-1.047-6.812,5.69-8.708,3.87c-7.382-7.081-28.792-31.081-31.317-37.383
		c4.059-2.242,8.142-4.39,12.319-6.372C206.739,743.241,232.557,735.713,258.305,736.539z"/>
	<path d="M208.06,236.617c0.826,0.637,1.652,1.251,2.502,1.864c-2.407,4.744-5.806,9.275-8.307,13.004
		c-8.992,13.381-18.573,25.323-24.757,40.333c-4.578,11.045-9.015,31.459-19.706,38.492c-12.296,8.071-19.659-23.506-21.169-30.633
		c-4.862-23.057-10.313-43.684-20.674-64.971c-10.549-21.689-23.034-42.763-29.311-66.246c-4.248-15.836-6.301-34.362-3.918-50.67
		c0.165-1.156,0.401-2.407,1.227-3.233c2.171-2.171,15.954,3.658,18.786,4.649c8.779,3.139,16.969,8,24.662,13.192
		c15.883,10.738,29.878,24.308,42.858,38.35c8.85,9.605,17.724,19.517,26.243,29.547c-18.314-8.095-40.899-9.841-55.578-3.351
		c-5.145,2.289-5.216,11.422,0,13.688c11.682,5.05,25.417,4.885,37.689,8.425c2.761,0.802,5.263,1.817,7.646,2.926
		c-2.761,1.086-5.452,2.336-7.953,3.776c-8.543,4.862-18.29,11.706-18.975,22.208c-0.425,6.301,6.301,10.431,11.894,9.062
		c7.151-1.746,11.871-8.638,18.196-12.248C195.411,241.408,201.736,239.213,208.06,236.617z"/>
</g>
</svg>
